<svg width="99" height="138" viewBox="0 0 99 138" fill="none" xmlns="http://www.w3.org/2000/svg">
<path d="M75.4635 106.569L75.4634 106.569C64.3649 106.457 55.3724 97.5305 55.1788 86.4332C55.177 86.332 55.1761 86.2106 55.1742 85.9434L54.9249 52.1014L56.9472 20.2891C57.6138 9.80323 66.3128 1.6396 76.8198 1.63958C87.8174 1.63956 96.7327 10.5548 96.7327 21.5524L96.7327 85.7904C96.7327 86.0593 96.7327 86.1815 96.7316 86.2832C96.6187 97.4395 87.6023 106.456 76.446 106.569C76.3443 106.57 76.2221 106.57 75.9531 106.57C75.686 106.57 75.5646 106.57 75.4635 106.569Z" fill="#F5A325" stroke="#2B2719" stroke-width="3.27907"/>
<path d="M75.4187 2.45938L78.6978 2.45938L78.6978 68.8606L75.4187 68.8606L75.4187 2.45938Z" fill="#2B2719"/>
<circle cx="49.1861" cy="88.815" r="47.5466" fill="#FFC400" stroke="#2B2719" stroke-width="3.27907"/>
<circle cx="42.2181" cy="77.7473" r="14.3459" transform="rotate(-90 42.2181 77.7473)" fill="#2B2719"/>
<circle cx="40.011" cy="75.5403" r="5.51767" transform="rotate(-90 40.011 75.5403)" fill="white" fill-opacity="0.91"/>
</svg>
