<svg width="469" height="173" viewBox="0 0 469 173" fill="none" xmlns="http://www.w3.org/2000/svg">
<path d="M118 26.2908L118 104.652C118 104.98 118 105.129 117.999 105.253C117.861 118.862 106.862 129.861 93.2531 129.999C93.1291 130 92.98 130 92.6519 130C92.326 130 92.1779 130 92.0545 129.999C78.516 129.862 67.5464 118.973 67.3102 105.436C67.3081 105.313 67.307 105.165 67.3046 104.839L67.0005 63.5562L69.4674 24.7497C70.2805 11.9585 80.8921 2.00008 93.7092 2.00005C107.125 2.00002 118 12.8754 118 26.2908Z" fill="#F5A325" stroke="#2B2719" stroke-width="4"/>
<path d="M92 3.00009L96 3.00009L96 84.0001L92 84.0001L92 3.00009Z" fill="#2B2719"/>
<circle cx="60" cy="112.001" r="58" fill="#FFC400" stroke="#2B2719" stroke-width="4"/>
<circle cx="51.5" cy="98.5002" r="17.5" transform="rotate(-90 51.5 98.5002)" fill="#2B2719"/>
<circle cx="48.8077" cy="95.8078" r="6.73077" transform="rotate(-90 48.8077 95.8078)" fill="white" fill-opacity="0.91"/>
<path d="M127.68 111.89C128.28 111.71 129.21 111.53 130.47 111.35C131.79 111.17 133.14 111.08 134.52 111.08C135.84 111.08 137.01 111.17 138.03 111.35C139.11 111.53 140.01 111.89 140.73 112.43C141.45 112.97 141.99 113.72 142.35 114.68C142.77 115.58 142.98 116.78 142.98 118.28V137.63C142.98 140.09 143.58 141.86 144.78 142.94C145.98 143.96 147.72 144.47 150 144.47C151.38 144.47 152.49 144.35 153.33 144.11C154.23 143.87 154.92 143.63 155.4 143.39V111.89C156 111.71 156.93 111.53 158.19 111.35C159.51 111.17 160.86 111.08 162.24 111.08C163.56 111.08 164.73 111.17 165.75 111.35C166.83 111.53 167.73 111.89 168.45 112.43C169.17 112.97 169.71 113.72 170.07 114.68C170.49 115.58 170.7 116.78 170.7 118.28V145.64C170.7 148.64 169.44 150.89 166.92 152.39C164.82 153.71 162.3 154.7 159.36 155.36C156.48 156.08 153.33 156.44 149.91 156.44C146.67 156.44 143.67 156.08 140.91 155.36C138.21 154.64 135.87 153.53 133.89 152.03C131.91 150.53 130.38 148.61 129.3 146.27C128.22 143.87 127.68 140.99 127.68 137.63V111.89ZM208.323 121.97C206.823 121.97 205.383 122.21 204.003 122.69C202.683 123.17 201.513 123.89 200.493 124.85C199.533 125.75 198.753 126.89 198.153 128.27C197.553 129.65 197.253 131.27 197.253 133.13C197.253 136.85 198.303 139.64 200.403 141.5C202.563 143.36 205.173 144.29 208.233 144.29C210.033 144.29 211.593 144.08 212.913 143.66C214.233 143.24 215.403 142.79 216.423 142.31C217.623 143.15 218.523 144.08 219.123 145.1C219.723 146.06 220.023 147.23 220.023 148.61C220.023 151.07 218.853 152.99 216.513 154.37C214.173 155.69 210.933 156.35 206.793 156.35C203.013 156.35 199.593 155.81 196.533 154.73C193.473 153.59 190.833 152.03 188.613 150.05C186.453 148.01 184.773 145.58 183.573 142.76C182.373 139.94 181.773 136.82 181.773 133.4C181.773 129.44 182.403 125.99 183.663 123.05C184.983 120.05 186.753 117.59 188.973 115.67C191.193 113.75 193.743 112.31 196.623 111.35C199.563 110.39 202.653 109.91 205.893 109.91C210.213 109.91 213.543 110.69 215.883 112.25C218.223 113.81 219.393 115.82 219.393 118.28C219.393 119.42 219.123 120.5 218.583 121.52C218.043 122.48 217.413 123.32 216.693 124.04C215.673 123.56 214.443 123.11 213.003 122.69C211.563 122.21 210.003 121.97 208.323 121.97ZM274.046 147.08C273.746 149.9 272.906 152.06 271.526 153.56C270.206 155.06 268.256 155.81 265.676 155.81C263.756 155.81 262.046 155.36 260.546 154.46C259.046 153.5 257.426 151.91 255.686 149.69L246.776 138.53V154.91C246.116 155.03 245.126 155.18 243.806 155.36C242.546 155.6 241.256 155.72 239.936 155.72C238.616 155.72 237.416 155.63 236.336 155.45C235.316 155.27 234.446 154.91 233.726 154.37C233.006 153.83 232.436 153.11 232.016 152.21C231.656 151.25 231.476 150.02 231.476 148.52V96.41C232.136 96.23 233.096 96.05 234.356 95.87C235.676 95.63 236.996 95.51 238.316 95.51C239.636 95.51 240.806 95.6 241.826 95.78C242.906 95.96 243.806 96.32 244.526 96.86C245.246 97.4 245.786 98.15 246.146 99.11C246.566 100.01 246.776 101.21 246.776 102.71V126.47L262.256 110.63C265.376 110.63 267.866 111.32 269.726 112.7C271.646 114.08 272.606 115.82 272.606 117.92C272.606 118.82 272.456 119.66 272.156 120.44C271.856 121.16 271.376 121.91 270.716 122.69C270.116 123.47 269.306 124.31 268.286 125.21C267.326 126.05 266.186 127.04 264.866 128.18L259.646 132.68L274.046 147.08ZM308.693 153.65C307.853 154.37 306.713 154.94 305.273 155.36C303.833 155.84 302.123 156.08 300.143 156.08C297.683 156.08 295.553 155.72 293.753 155C291.953 154.34 290.753 153.38 290.153 152.12C289.493 150.68 288.713 148.4 287.813 145.28C286.973 142.16 286.133 138.74 285.293 135.02C284.453 131.3 283.643 127.52 282.863 123.68C282.143 119.84 281.573 116.45 281.153 113.51C281.993 112.67 283.103 111.95 284.483 111.35C285.923 110.69 287.483 110.36 289.163 110.36C291.263 110.36 292.973 110.84 294.293 111.8C295.673 112.7 296.513 114.29 296.813 116.57C297.413 121.13 297.923 124.91 298.343 127.91C298.763 130.85 299.093 133.28 299.333 135.2C299.633 137.06 299.843 138.5 299.963 139.52C300.143 140.48 300.293 141.26 300.413 141.86H300.773C300.953 140.9 301.253 139.52 301.673 137.72C302.153 135.86 302.693 133.76 303.293 131.42C303.893 129.08 304.523 126.56 305.183 123.86C305.843 121.1 306.503 118.37 307.163 115.67C308.363 115.01 309.533 114.5 310.673 114.14C311.873 113.78 313.343 113.6 315.083 113.6C317.183 113.6 318.983 113.93 320.483 114.59C321.983 115.25 322.943 116.27 323.363 117.65C324.083 120.29 324.773 122.87 325.433 125.39C326.093 127.85 326.693 130.16 327.233 132.32C327.773 134.42 328.253 136.31 328.673 137.99C329.093 139.61 329.393 140.9 329.573 141.86H330.023C330.683 137.24 331.313 132.44 331.913 127.46C332.573 122.48 333.173 117.41 333.713 112.25C334.793 111.59 335.933 111.11 337.133 110.81C338.333 110.51 339.533 110.36 340.733 110.36C342.833 110.36 344.573 110.81 345.953 111.71C347.333 112.61 348.023 114.17 348.023 116.39C348.023 117.35 347.873 118.79 347.573 120.71C347.273 122.63 346.883 124.79 346.403 127.19C345.923 129.59 345.353 132.11 344.693 134.75C344.093 137.39 343.463 139.94 342.803 142.4C342.203 144.86 341.603 147.08 341.003 149.06C340.463 151.04 339.983 152.57 339.563 153.65C338.723 154.37 337.433 154.94 335.693 155.36C333.953 155.84 332.093 156.08 330.113 156.08C325.073 156.08 322.103 154.82 321.203 152.3C320.843 151.22 320.393 149.87 319.853 148.25C319.313 146.57 318.743 144.74 318.143 142.76C317.543 140.78 316.973 138.74 316.433 136.64C315.893 134.48 315.443 132.41 315.083 130.43C314.663 132.53 314.153 134.72 313.553 137C312.953 139.22 312.323 141.41 311.663 143.57C311.063 145.67 310.493 147.62 309.953 149.42C309.413 151.16 308.993 152.57 308.693 153.65ZM381.685 156.44C378.145 156.44 374.845 155.96 371.785 155C368.785 153.98 366.145 152.48 363.865 150.5C361.645 148.52 359.875 146.03 358.555 143.03C357.295 140.03 356.665 136.52 356.665 132.5C356.665 128.54 357.295 125.15 358.555 122.33C359.875 119.45 361.585 117.11 363.685 115.31C365.785 113.45 368.185 112.1 370.885 111.26C373.585 110.36 376.345 109.91 379.165 109.91C382.345 109.91 385.225 110.39 387.805 111.35C390.445 112.31 392.695 113.63 394.555 115.31C396.475 116.99 397.945 119 398.965 121.34C400.045 123.68 400.585 126.23 400.585 128.99C400.585 131.03 400.015 132.59 398.875 133.67C397.735 134.75 396.145 135.44 394.105 135.74L371.875 139.07C372.535 141.05 373.885 142.55 375.925 143.57C377.965 144.53 380.305 145.01 382.945 145.01C385.405 145.01 387.715 144.71 389.875 144.11C392.095 143.45 393.895 142.7 395.275 141.86C396.235 142.46 397.045 143.3 397.705 144.38C398.365 145.46 398.695 146.6 398.695 147.8C398.695 150.5 397.435 152.51 394.915 153.83C392.995 154.85 390.835 155.54 388.435 155.9C386.035 156.26 383.785 156.44 381.685 156.44ZM379.165 121.07C377.725 121.07 376.465 121.31 375.385 121.79C374.365 122.27 373.525 122.9 372.865 123.68C372.205 124.4 371.695 125.24 371.335 126.2C371.035 127.1 370.855 128.03 370.795 128.99L386.185 126.47C386.005 125.27 385.345 124.07 384.205 122.87C383.065 121.67 381.385 121.07 379.165 121.07ZM411.729 96.41C412.329 96.23 413.289 96.05 414.609 95.87C415.929 95.63 417.279 95.51 418.659 95.51C419.979 95.51 421.149 95.6 422.169 95.78C423.249 95.96 424.149 96.32 424.869 96.86C425.589 97.4 426.129 98.15 426.489 99.11C426.849 100.01 427.029 101.21 427.029 102.71V111.53C428.529 110.93 429.939 110.51 431.259 110.27C432.639 110.03 434.139 109.91 435.759 109.91C438.639 109.91 441.369 110.42 443.949 111.44C446.529 112.46 448.809 113.96 450.789 115.94C452.769 117.86 454.329 120.26 455.469 123.14C456.609 126.02 457.179 129.35 457.179 133.13C457.179 137.03 456.579 140.45 455.379 143.39C454.239 146.27 452.619 148.67 450.519 150.59C448.419 152.51 445.839 153.98 442.779 155C439.779 155.96 436.449 156.44 432.789 156.44C428.829 156.44 425.469 155.96 422.709 155C419.949 154.1 417.609 152.96 415.689 151.58C413.049 149.72 411.729 147.32 411.729 144.38V96.41ZM432.789 144.38C435.549 144.38 437.679 143.45 439.179 141.59C440.739 139.67 441.519 136.85 441.519 133.13C441.519 129.35 440.739 126.53 439.179 124.67C437.619 122.81 435.519 121.88 432.879 121.88C431.679 121.88 430.629 122 429.729 122.24C428.889 122.48 427.959 122.84 426.939 123.32V142.94C427.599 143.36 428.379 143.72 429.279 144.02C430.239 144.26 431.409 144.38 432.789 144.38Z" fill="#E3E3E3"/>
</svg>
