<svg width="469" height="175" viewBox="0 0 469 175" fill="none" xmlns="http://www.w3.org/2000/svg">
<path d="M109 26.2907L109 104.652C109 104.98 108.999 105.129 108.998 105.253C108.86 118.862 97.8618 129.861 84.2526 129.999C84.1286 130 83.9795 130 83.6515 130C83.3256 130 83.1774 130 83.054 129.999C69.5155 129.862 58.5459 118.973 58.3098 105.436C58.3076 105.312 58.3065 105.164 58.3041 104.839L58 63.556L60.4669 24.7496C61.2801 11.9583 71.8916 1.99992 84.7087 1.9999C98.1241 1.99987 109 12.8752 109 26.2907Z" fill="#F5A325" stroke="#2B2719" stroke-width="4"/>
<path d="M82.9995 2.99994L86.9995 2.99994L86.9995 83.9999L82.9995 83.9999L82.9995 2.99994Z" fill="#2B2719"/>
<circle cx="60" cy="114.001" r="58" fill="#FFC400" stroke="#2B2719" stroke-width="4"/>
<circle cx="51.5" cy="100.5" r="17.5" transform="rotate(-90 51.5 100.5)" fill="#2B2719"/>
<circle cx="48.8077" cy="97.8078" r="6.73077" transform="rotate(-90 48.8077 97.8078)" fill="white" fill-opacity="0.91"/>
<path d="M127.68 113.89C128.28 113.71 129.21 113.53 130.47 113.35C131.79 113.17 133.14 113.08 134.52 113.08C135.84 113.08 137.01 113.17 138.03 113.35C139.11 113.53 140.01 113.89 140.73 114.43C141.45 114.97 141.99 115.72 142.35 116.68C142.77 117.58 142.98 118.78 142.98 120.28V139.63C142.98 142.09 143.58 143.86 144.78 144.94C145.98 145.96 147.72 146.47 150 146.47C151.38 146.47 152.49 146.35 153.33 146.11C154.23 145.87 154.92 145.63 155.4 145.39V113.89C156 113.71 156.93 113.53 158.19 113.35C159.51 113.17 160.86 113.08 162.24 113.08C163.56 113.08 164.73 113.17 165.75 113.35C166.83 113.53 167.73 113.89 168.45 114.43C169.17 114.97 169.71 115.72 170.07 116.68C170.49 117.58 170.7 118.78 170.7 120.28V147.64C170.7 150.64 169.44 152.89 166.92 154.39C164.82 155.71 162.3 156.7 159.36 157.36C156.48 158.08 153.33 158.44 149.91 158.44C146.67 158.44 143.67 158.08 140.91 157.36C138.21 156.64 135.87 155.53 133.89 154.03C131.91 152.53 130.38 150.61 129.3 148.27C128.22 145.87 127.68 142.99 127.68 139.63V113.89ZM208.323 123.97C206.823 123.97 205.383 124.21 204.003 124.69C202.683 125.17 201.513 125.89 200.493 126.85C199.533 127.75 198.753 128.89 198.153 130.27C197.553 131.65 197.253 133.27 197.253 135.13C197.253 138.85 198.303 141.64 200.403 143.5C202.563 145.36 205.173 146.29 208.233 146.29C210.033 146.29 211.593 146.08 212.913 145.66C214.233 145.24 215.403 144.79 216.423 144.31C217.623 145.15 218.523 146.08 219.123 147.1C219.723 148.06 220.023 149.23 220.023 150.61C220.023 153.07 218.853 154.99 216.513 156.37C214.173 157.69 210.933 158.35 206.793 158.35C203.013 158.35 199.593 157.81 196.533 156.73C193.473 155.59 190.833 154.03 188.613 152.05C186.453 150.01 184.773 147.58 183.573 144.76C182.373 141.94 181.773 138.82 181.773 135.4C181.773 131.44 182.403 127.99 183.663 125.05C184.983 122.05 186.753 119.59 188.973 117.67C191.193 115.75 193.743 114.31 196.623 113.35C199.563 112.39 202.653 111.91 205.893 111.91C210.213 111.91 213.543 112.69 215.883 114.25C218.223 115.81 219.393 117.82 219.393 120.28C219.393 121.42 219.123 122.5 218.583 123.52C218.043 124.48 217.413 125.32 216.693 126.04C215.673 125.56 214.443 125.11 213.003 124.69C211.563 124.21 210.003 123.97 208.323 123.97ZM274.046 149.08C273.746 151.9 272.906 154.06 271.526 155.56C270.206 157.06 268.256 157.81 265.676 157.81C263.756 157.81 262.046 157.36 260.546 156.46C259.046 155.5 257.426 153.91 255.686 151.69L246.776 140.53V156.91C246.116 157.03 245.126 157.18 243.806 157.36C242.546 157.6 241.256 157.72 239.936 157.72C238.616 157.72 237.416 157.63 236.336 157.45C235.316 157.27 234.446 156.91 233.726 156.37C233.006 155.83 232.436 155.11 232.016 154.21C231.656 153.25 231.476 152.02 231.476 150.52V98.41C232.136 98.23 233.096 98.05 234.356 97.87C235.676 97.63 236.996 97.51 238.316 97.51C239.636 97.51 240.806 97.6 241.826 97.78C242.906 97.96 243.806 98.32 244.526 98.86C245.246 99.4 245.786 100.15 246.146 101.11C246.566 102.01 246.776 103.21 246.776 104.71V128.47L262.256 112.63C265.376 112.63 267.866 113.32 269.726 114.7C271.646 116.08 272.606 117.82 272.606 119.92C272.606 120.82 272.456 121.66 272.156 122.44C271.856 123.16 271.376 123.91 270.716 124.69C270.116 125.47 269.306 126.31 268.286 127.21C267.326 128.05 266.186 129.04 264.866 130.18L259.646 134.68L274.046 149.08ZM308.693 155.65C307.853 156.37 306.713 156.94 305.273 157.36C303.833 157.84 302.123 158.08 300.143 158.08C297.683 158.08 295.553 157.72 293.753 157C291.953 156.34 290.753 155.38 290.153 154.12C289.493 152.68 288.713 150.4 287.813 147.28C286.973 144.16 286.133 140.74 285.293 137.02C284.453 133.3 283.643 129.52 282.863 125.68C282.143 121.84 281.573 118.45 281.153 115.51C281.993 114.67 283.103 113.95 284.483 113.35C285.923 112.69 287.483 112.36 289.163 112.36C291.263 112.36 292.973 112.84 294.293 113.8C295.673 114.7 296.513 116.29 296.813 118.57C297.413 123.13 297.923 126.91 298.343 129.91C298.763 132.85 299.093 135.28 299.333 137.2C299.633 139.06 299.843 140.5 299.963 141.52C300.143 142.48 300.293 143.26 300.413 143.86H300.773C300.953 142.9 301.253 141.52 301.673 139.72C302.153 137.86 302.693 135.76 303.293 133.42C303.893 131.08 304.523 128.56 305.183 125.86C305.843 123.1 306.503 120.37 307.163 117.67C308.363 117.01 309.533 116.5 310.673 116.14C311.873 115.78 313.343 115.6 315.083 115.6C317.183 115.6 318.983 115.93 320.483 116.59C321.983 117.25 322.943 118.27 323.363 119.65C324.083 122.29 324.773 124.87 325.433 127.39C326.093 129.85 326.693 132.16 327.233 134.32C327.773 136.42 328.253 138.31 328.673 139.99C329.093 141.61 329.393 142.9 329.573 143.86H330.023C330.683 139.24 331.313 134.44 331.913 129.46C332.573 124.48 333.173 119.41 333.713 114.25C334.793 113.59 335.933 113.11 337.133 112.81C338.333 112.51 339.533 112.36 340.733 112.36C342.833 112.36 344.573 112.81 345.953 113.71C347.333 114.61 348.023 116.17 348.023 118.39C348.023 119.35 347.873 120.79 347.573 122.71C347.273 124.63 346.883 126.79 346.403 129.19C345.923 131.59 345.353 134.11 344.693 136.75C344.093 139.39 343.463 141.94 342.803 144.4C342.203 146.86 341.603 149.08 341.003 151.06C340.463 153.04 339.983 154.57 339.563 155.65C338.723 156.37 337.433 156.94 335.693 157.36C333.953 157.84 332.093 158.08 330.113 158.08C325.073 158.08 322.103 156.82 321.203 154.3C320.843 153.22 320.393 151.87 319.853 150.25C319.313 148.57 318.743 146.74 318.143 144.76C317.543 142.78 316.973 140.74 316.433 138.64C315.893 136.48 315.443 134.41 315.083 132.43C314.663 134.53 314.153 136.72 313.553 139C312.953 141.22 312.323 143.41 311.663 145.57C311.063 147.67 310.493 149.62 309.953 151.42C309.413 153.16 308.993 154.57 308.693 155.65ZM381.685 158.44C378.145 158.44 374.845 157.96 371.785 157C368.785 155.98 366.145 154.48 363.865 152.5C361.645 150.52 359.875 148.03 358.555 145.03C357.295 142.03 356.665 138.52 356.665 134.5C356.665 130.54 357.295 127.15 358.555 124.33C359.875 121.45 361.585 119.11 363.685 117.31C365.785 115.45 368.185 114.1 370.885 113.26C373.585 112.36 376.345 111.91 379.165 111.91C382.345 111.91 385.225 112.39 387.805 113.35C390.445 114.31 392.695 115.63 394.555 117.31C396.475 118.99 397.945 121 398.965 123.34C400.045 125.68 400.585 128.23 400.585 130.99C400.585 133.03 400.015 134.59 398.875 135.67C397.735 136.75 396.145 137.44 394.105 137.74L371.875 141.07C372.535 143.05 373.885 144.55 375.925 145.57C377.965 146.53 380.305 147.01 382.945 147.01C385.405 147.01 387.715 146.71 389.875 146.11C392.095 145.45 393.895 144.7 395.275 143.86C396.235 144.46 397.045 145.3 397.705 146.38C398.365 147.46 398.695 148.6 398.695 149.8C398.695 152.5 397.435 154.51 394.915 155.83C392.995 156.85 390.835 157.54 388.435 157.9C386.035 158.26 383.785 158.44 381.685 158.44ZM379.165 123.07C377.725 123.07 376.465 123.31 375.385 123.79C374.365 124.27 373.525 124.9 372.865 125.68C372.205 126.4 371.695 127.24 371.335 128.2C371.035 129.1 370.855 130.03 370.795 130.99L386.185 128.47C386.005 127.27 385.345 126.07 384.205 124.87C383.065 123.67 381.385 123.07 379.165 123.07ZM411.729 98.41C412.329 98.23 413.289 98.05 414.609 97.87C415.929 97.63 417.279 97.51 418.659 97.51C419.979 97.51 421.149 97.6 422.169 97.78C423.249 97.96 424.149 98.32 424.869 98.86C425.589 99.4 426.129 100.15 426.489 101.11C426.849 102.01 427.029 103.21 427.029 104.71V113.53C428.529 112.93 429.939 112.51 431.259 112.27C432.639 112.03 434.139 111.91 435.759 111.91C438.639 111.91 441.369 112.42 443.949 113.44C446.529 114.46 448.809 115.96 450.789 117.94C452.769 119.86 454.329 122.26 455.469 125.14C456.609 128.02 457.179 131.35 457.179 135.13C457.179 139.03 456.579 142.45 455.379 145.39C454.239 148.27 452.619 150.67 450.519 152.59C448.419 154.51 445.839 155.98 442.779 157C439.779 157.96 436.449 158.44 432.789 158.44C428.829 158.44 425.469 157.96 422.709 157C419.949 156.1 417.609 154.96 415.689 153.58C413.049 151.72 411.729 149.32 411.729 146.38V98.41ZM432.789 146.38C435.549 146.38 437.679 145.45 439.179 143.59C440.739 141.67 441.519 138.85 441.519 135.13C441.519 131.35 440.739 128.53 439.179 126.67C437.619 124.81 435.519 123.88 432.879 123.88C431.679 123.88 430.629 124 429.729 124.24C428.889 124.48 427.959 124.84 426.939 125.32V144.94C427.599 145.36 428.379 145.72 429.279 146.02C430.239 146.26 431.409 146.38 432.789 146.38Z" fill="#2B2719"/>
</svg>
