<svg width="21" height="21" viewBox="0 0 21 21" fill="none" xmlns="http://www.w3.org/2000/svg">
<path d="M13.9165 4.35229L16 2.67367L13.3729 2.5958L12.5 0L11.6271 2.5958L9 2.67367L11.0835 4.35229L10.3341 7L12.5 5.43387L14.6659 7L13.9165 4.35229Z" fill="#FEFEFE"/>
<path d="M19.0091 11.1071L20.5 9.91205L18.6273 9.86424L18 8L17.3727 9.86424L15.5 9.91205L16.9909 11.1071L16.4545 13L18 11.8815L19.5455 13L19.0091 11.1071Z" fill="#FEFEFE"/>
<path d="M5.34783 3.69565C5.34783 10.3043 10.6957 15.6522 17.3043 15.6522C17.8804 15.6522 18.4457 15.6087 19 15.5326C17.25 18.2174 14.2283 20 10.7826 20C5.38043 20 1 15.6196 1 10.2174C1 6.77174 2.78261 3.75 5.46739 2C5.3913 2.55435 5.34783 3.11957 5.34783 3.69565Z" stroke="#FEFEFE" stroke-width="2" stroke-linecap="round" stroke-linejoin="round"/>
</svg>
