<svg width="451" height="138" viewBox="0 0 451 138" fill="none" xmlns="http://www.w3.org/2000/svg">
<path d="M96.7327 21.5524L96.7327 85.7904C96.7327 86.0593 96.7327 86.1815 96.7316 86.2832C96.6187 97.4395 87.6023 106.456 76.446 106.569C76.3443 106.57 76.2221 106.57 75.9531 106.57C75.686 106.57 75.5646 106.57 75.4634 106.569C64.3649 106.457 55.3724 97.5305 55.1788 86.4332C55.177 86.332 55.1761 86.2106 55.1742 85.9434L54.9249 52.1014L56.9472 20.2891C57.6138 9.80323 66.3128 1.6396 76.8198 1.63958C87.8174 1.63956 96.7327 10.5548 96.7327 21.5524Z" fill="#F5A325" stroke="#2B2719" stroke-width="3.27907"/>
<path d="M75.4187 2.45938L78.6978 2.45938L78.6978 68.8606L75.4187 68.8606L75.4187 2.45938Z" fill="#2B2719"/>
<circle cx="49.1861" cy="88.815" r="47.5466" fill="#FFC400" stroke="#2B2719" stroke-width="3.27907"/>
<circle cx="42.2181" cy="77.7473" r="14.3459" transform="rotate(-90 42.2181 77.7473)" fill="#2B2719"/>
<circle cx="40.011" cy="75.5403" r="5.51767" transform="rotate(-90 40.011 75.5403)" fill="white" fill-opacity="0.91"/>
<path d="M109.68 63.8907C110.28 63.7107 111.21 63.5307 112.47 63.3507C113.79 63.1707 115.14 63.0807 116.52 63.0807C117.84 63.0807 119.01 63.1707 120.03 63.3507C121.11 63.5307 122.01 63.8907 122.73 64.4307C123.45 64.9707 123.99 65.7207 124.35 66.6807C124.77 67.5807 124.98 68.7807 124.98 70.2807V89.6307C124.98 92.0907 125.58 93.8607 126.78 94.9407C127.98 95.9607 129.72 96.4707 132 96.4707C133.38 96.4707 134.49 96.3507 135.33 96.1107C136.23 95.8707 136.92 95.6307 137.4 95.3907V63.8907C138 63.7107 138.93 63.5307 140.19 63.3507C141.51 63.1707 142.86 63.0807 144.24 63.0807C145.56 63.0807 146.73 63.1707 147.75 63.3507C148.83 63.5307 149.73 63.8907 150.45 64.4307C151.17 64.9707 151.71 65.7207 152.07 66.6807C152.49 67.5807 152.7 68.7807 152.7 70.2807V97.6407C152.7 100.641 151.44 102.891 148.92 104.391C146.82 105.711 144.3 106.701 141.36 107.361C138.48 108.081 135.33 108.441 131.91 108.441C128.67 108.441 125.67 108.081 122.91 107.361C120.21 106.641 117.87 105.531 115.89 104.031C113.91 102.531 112.38 100.611 111.3 98.2707C110.22 95.8707 109.68 92.9907 109.68 89.6307V63.8907ZM190.323 73.9707C188.823 73.9707 187.383 74.2107 186.003 74.6907C184.683 75.1707 183.513 75.8907 182.493 76.8507C181.533 77.7507 180.753 78.8907 180.153 80.2707C179.553 81.6507 179.253 83.2707 179.253 85.1307C179.253 88.8507 180.303 91.6407 182.403 93.5007C184.563 95.3607 187.173 96.2907 190.233 96.2907C192.033 96.2907 193.593 96.0807 194.913 95.6607C196.233 95.2407 197.403 94.7907 198.423 94.3107C199.623 95.1507 200.523 96.0807 201.123 97.1007C201.723 98.0607 202.023 99.2307 202.023 100.611C202.023 103.071 200.853 104.991 198.513 106.371C196.173 107.691 192.933 108.351 188.793 108.351C185.013 108.351 181.593 107.811 178.533 106.731C175.473 105.591 172.833 104.031 170.613 102.051C168.453 100.011 166.773 97.5807 165.573 94.7607C164.373 91.9407 163.773 88.8207 163.773 85.4007C163.773 81.4407 164.403 77.9907 165.663 75.0507C166.983 72.0507 168.753 69.5907 170.973 67.6707C173.193 65.7507 175.743 64.3107 178.623 63.3507C181.563 62.3907 184.653 61.9107 187.893 61.9107C192.213 61.9107 195.543 62.6907 197.883 64.2507C200.223 65.8107 201.393 67.8207 201.393 70.2807C201.393 71.4207 201.123 72.5007 200.583 73.5207C200.043 74.4807 199.413 75.3207 198.693 76.0407C197.673 75.5607 196.443 75.1107 195.003 74.6907C193.563 74.2107 192.003 73.9707 190.323 73.9707ZM256.046 99.0807C255.746 101.901 254.906 104.061 253.526 105.561C252.206 107.061 250.256 107.811 247.676 107.811C245.756 107.811 244.046 107.361 242.546 106.461C241.046 105.501 239.426 103.911 237.686 101.691L228.776 90.5307V106.911C228.116 107.031 227.126 107.181 225.806 107.361C224.546 107.601 223.256 107.721 221.936 107.721C220.616 107.721 219.416 107.631 218.336 107.451C217.316 107.271 216.446 106.911 215.726 106.371C215.006 105.831 214.436 105.111 214.016 104.211C213.656 103.251 213.476 102.021 213.476 100.521V48.4107C214.136 48.2307 215.096 48.0507 216.356 47.8707C217.676 47.6307 218.996 47.5107 220.316 47.5107C221.636 47.5107 222.806 47.6007 223.826 47.7807C224.906 47.9607 225.806 48.3207 226.526 48.8607C227.246 49.4007 227.786 50.1507 228.146 51.1107C228.566 52.0107 228.776 53.2107 228.776 54.7107V78.4707L244.256 62.6307C247.376 62.6307 249.866 63.3207 251.726 64.7007C253.646 66.0807 254.606 67.8207 254.606 69.9207C254.606 70.8207 254.456 71.6607 254.156 72.4407C253.856 73.1607 253.376 73.9107 252.716 74.6907C252.116 75.4707 251.306 76.3107 250.286 77.2107C249.326 78.0507 248.186 79.0407 246.866 80.1807L241.646 84.6807L256.046 99.0807ZM290.693 105.651C289.853 106.371 288.713 106.941 287.273 107.361C285.833 107.841 284.123 108.081 282.143 108.081C279.683 108.081 277.553 107.721 275.753 107.001C273.953 106.341 272.753 105.381 272.153 104.121C271.493 102.681 270.713 100.401 269.813 97.2807C268.973 94.1607 268.133 90.7407 267.293 87.0207C266.453 83.3007 265.643 79.5207 264.863 75.6807C264.143 71.8407 263.573 68.4507 263.153 65.5107C263.993 64.6707 265.103 63.9507 266.483 63.3507C267.923 62.6907 269.483 62.3607 271.163 62.3607C273.263 62.3607 274.973 62.8407 276.293 63.8007C277.673 64.7007 278.513 66.2907 278.813 68.5707C279.413 73.1307 279.923 76.9107 280.343 79.9107C280.763 82.8507 281.093 85.2807 281.333 87.2007C281.633 89.0607 281.843 90.5007 281.963 91.5207C282.143 92.4807 282.293 93.2607 282.413 93.8607H282.773C282.953 92.9007 283.253 91.5207 283.673 89.7207C284.153 87.8607 284.693 85.7607 285.293 83.4207C285.893 81.0807 286.523 78.5607 287.183 75.8607C287.843 73.1007 288.503 70.3707 289.163 67.6707C290.363 67.0107 291.533 66.5007 292.673 66.1407C293.873 65.7807 295.343 65.6007 297.083 65.6007C299.183 65.6007 300.983 65.9307 302.483 66.5907C303.983 67.2507 304.943 68.2707 305.363 69.6507C306.083 72.2907 306.773 74.8707 307.433 77.3907C308.093 79.8507 308.693 82.1607 309.233 84.3207C309.773 86.4207 310.253 88.3107 310.673 89.9907C311.093 91.6107 311.393 92.9007 311.573 93.8607H312.023C312.683 89.2407 313.313 84.4407 313.913 79.4607C314.573 74.4807 315.173 69.4107 315.713 64.2507C316.793 63.5907 317.933 63.1107 319.133 62.8107C320.333 62.5107 321.533 62.3607 322.733 62.3607C324.833 62.3607 326.573 62.8107 327.953 63.7107C329.333 64.6107 330.023 66.1707 330.023 68.3907C330.023 69.3507 329.873 70.7907 329.573 72.7107C329.273 74.6307 328.883 76.7907 328.403 79.1907C327.923 81.5907 327.353 84.1107 326.693 86.7507C326.093 89.3907 325.463 91.9407 324.803 94.4007C324.203 96.8607 323.603 99.0807 323.003 101.061C322.463 103.041 321.983 104.571 321.563 105.651C320.723 106.371 319.433 106.941 317.693 107.361C315.953 107.841 314.093 108.081 312.113 108.081C307.073 108.081 304.103 106.821 303.203 104.301C302.843 103.221 302.393 101.871 301.853 100.251C301.313 98.5707 300.743 96.7407 300.143 94.7607C299.543 92.7807 298.973 90.7407 298.433 88.6407C297.893 86.4807 297.443 84.4107 297.083 82.4307C296.663 84.5307 296.153 86.7207 295.553 89.0007C294.953 91.2207 294.323 93.4107 293.663 95.5707C293.063 97.6707 292.493 99.6207 291.953 101.421C291.413 103.161 290.993 104.571 290.693 105.651ZM363.685 108.441C360.145 108.441 356.845 107.961 353.785 107.001C350.785 105.981 348.145 104.481 345.865 102.501C343.645 100.521 341.875 98.0307 340.555 95.0307C339.295 92.0307 338.665 88.5207 338.665 84.5007C338.665 80.5407 339.295 77.1507 340.555 74.3307C341.875 71.4507 343.585 69.1107 345.685 67.3107C347.785 65.4507 350.185 64.1007 352.885 63.2607C355.585 62.3607 358.345 61.9107 361.165 61.9107C364.345 61.9107 367.225 62.3907 369.805 63.3507C372.445 64.3107 374.695 65.6307 376.555 67.3107C378.475 68.9907 379.945 71.0007 380.965 73.3407C382.045 75.6807 382.585 78.2307 382.585 80.9907C382.585 83.0307 382.015 84.5907 380.875 85.6707C379.735 86.7507 378.145 87.4407 376.105 87.7407L353.875 91.0707C354.535 93.0507 355.885 94.5507 357.925 95.5707C359.965 96.5307 362.305 97.0107 364.945 97.0107C367.405 97.0107 369.715 96.7107 371.875 96.1107C374.095 95.4507 375.895 94.7007 377.275 93.8607C378.235 94.4607 379.045 95.3007 379.705 96.3807C380.365 97.4607 380.695 98.6007 380.695 99.8007C380.695 102.501 379.435 104.511 376.915 105.831C374.995 106.851 372.835 107.541 370.435 107.901C368.035 108.261 365.785 108.441 363.685 108.441ZM361.165 73.0707C359.725 73.0707 358.465 73.3107 357.385 73.7907C356.365 74.2707 355.525 74.9007 354.865 75.6807C354.205 76.4007 353.695 77.2407 353.335 78.2007C353.035 79.1007 352.855 80.0307 352.795 80.9907L368.185 78.4707C368.005 77.2707 367.345 76.0707 366.205 74.8707C365.065 73.6707 363.385 73.0707 361.165 73.0707ZM393.729 48.4107C394.329 48.2307 395.289 48.0507 396.609 47.8707C397.929 47.6307 399.279 47.5107 400.659 47.5107C401.979 47.5107 403.149 47.6007 404.169 47.7807C405.249 47.9607 406.149 48.3207 406.869 48.8607C407.589 49.4007 408.129 50.1507 408.489 51.1107C408.849 52.0107 409.029 53.2107 409.029 54.7107V63.5307C410.529 62.9307 411.939 62.5107 413.259 62.2707C414.639 62.0307 416.139 61.9107 417.759 61.9107C420.639 61.9107 423.369 62.4207 425.949 63.4407C428.529 64.4607 430.809 65.9607 432.789 67.9407C434.769 69.8607 436.329 72.2607 437.469 75.1407C438.609 78.0207 439.179 81.3507 439.179 85.1307C439.179 89.0307 438.579 92.4507 437.379 95.3907C436.239 98.2707 434.619 100.671 432.519 102.591C430.419 104.511 427.839 105.981 424.779 107.001C421.779 107.961 418.449 108.441 414.789 108.441C410.829 108.441 407.469 107.961 404.709 107.001C401.949 106.101 399.609 104.961 397.689 103.581C395.049 101.721 393.729 99.3207 393.729 96.3807V48.4107ZM414.789 96.3807C417.549 96.3807 419.679 95.4507 421.179 93.5907C422.739 91.6707 423.519 88.8507 423.519 85.1307C423.519 81.3507 422.739 78.5307 421.179 76.6707C419.619 74.8107 417.519 73.8807 414.879 73.8807C413.679 73.8807 412.629 74.0007 411.729 74.2407C410.889 74.4807 409.959 74.8407 408.939 75.3207V94.9407C409.599 95.3607 410.379 95.7207 411.279 96.0207C412.239 96.2607 413.409 96.3807 414.789 96.3807Z" fill="#E3E3E3"/>
</svg>
